<?xml version="1.0" encoding="UTF-8"?>
<svg width="529px" height="132px" viewBox="0 0 529 132" version="1.1" xmlns="http://www.w3.org/2000/svg" xmlns:xlink="http://www.w3.org/1999/xlink">
    <!-- Generator: Sketch 61.2 (89653) - https://sketch.com -->
    <title>Logo 4</title>
    <desc>Created with Sketch.</desc>
    <defs>
        <circle id="path-1" cx="66" cy="66" r="66"></circle>
    </defs>
    <g id="Page-1" stroke="none" stroke-width="1" fill="none" fill-rule="evenodd">
        <g id="Logo-Mockup---Colour-Schemes" transform="translate(-795.000000, -576.000000)">
            <g id="Logo-4" transform="translate(795.000000, 576.000000)">
                <g id="Group">
                    <mask id="mask-2" fill="white">
                        <use xlink:href="#path-1"></use>
                    </mask>
                    <use id="Mask" fill="#342E52" xlink:href="#path-1"></use>
                    <circle id="Oval" fill="#8989C0" mask="url(#mask-2)" cx="80" cy="80" r="66"></circle>
                    <circle id="Oval" fill="#DBC7BE" mask="url(#mask-2)" cx="93" cy="93" r="53"></circle>
                    <circle id="Oval" fill="#FFFFFF" mask="url(#mask-2)" cx="96.5" cy="96.5" r="26.5"></circle>
                </g>
                <g id="Group-6" transform="translate(172.763359, 23.858524)" fill-rule="nonzero">
                    <path d="M29.0035623,83.5175573 C30.9089059,83.5175573 32.9024597,83.4293469 34.9842239,83.2529262 C37.0659881,83.0765055 39.1124682,82.8471586 41.1236641,82.5648855 C43.1348601,82.2826124 45.0578456,81.9474131 46.8926209,81.5592875 C48.7273961,81.171162 50.3504665,80.7653944 51.7618321,80.3419847 L51.7618321,80.3419847 L51.7618321,-5.68434189e-14 L35.9898219,2.54045802 L35.9898219,27.7333333 C34.2256149,26.9570823 32.47905,26.3572519 30.7501272,25.9338422 C29.0212044,25.5104326 27.0629347,25.2987277 24.8753181,25.2987277 C20.9234945,25.2987277 17.4127226,25.9691264 14.3430025,27.3099237 C11.2732824,28.6507209 8.67989822,30.5913486 6.56284987,33.1318066 C4.44580153,35.6722646 2.82273113,38.7596268 1.69363868,42.3938931 C0.564546226,46.0281595 1.08002496e-12,50.1034775 1.08002496e-12,54.6198473 C1.08002496e-12,59.0656489 0.652756573,63.0703986 1.95826972,66.6340967 C3.26378287,70.1977947 5.15148431,73.2322307 7.62137405,75.7374046 C10.0912638,78.2425785 13.1256997,80.165564 16.7246819,81.5063613 C20.3236641,82.8471586 24.4166243,83.5175573 29.0035623,83.5175573 Z" id="Path" fill="#342E52"></path>
                    <path d="M29.1094148,70.0743003 C24.8047498,70.0743003 21.558609,68.5923664 19.3709924,65.6284987 C17.1833757,62.664631 16.0895674,58.7480916 16.0895674,53.8788804 C16.0895674,43.7170483 19.8296862,38.6361323 27.3099237,38.6361323 C28.9329941,38.6361323 30.5384224,38.8478372 32.1262087,39.2712468 C33.7139949,39.6946565 35.001866,40.2239186 35.9898219,40.8590331 L35.9898219,40.8590331 L35.9898219,69.5450382 C35.2135708,69.6861747 34.2256149,69.8096692 33.0259542,69.9155216 C31.8262935,70.021374 30.5207803,70.0743003 29.1094148,70.0743003 Z" id="Path" fill="#FFFFFF"></path>
                    <path d="M93.3618321,83.6234097 C95.3377439,83.6234097 97.3136556,83.5175573 99.2895674,83.3058524 C101.265479,83.0941476 103.117897,82.8295165 104.846819,82.5119593 C106.575742,82.194402 108.145886,81.8239186 109.557252,81.4005089 C110.968617,80.9770992 112.09771,80.5536896 112.944529,80.1302799 L112.944529,80.1302799 L110.827481,67.3221374 C109.063274,68.0983885 106.787447,68.751145 104,69.2804071 C101.212553,69.8096692 98.3721798,70.0743003 95.4788804,70.0743003 C90.9625106,70.0743003 87.3635284,69.1216285 84.6819338,67.216285 C82.0003393,65.3109415 80.4831213,62.7351993 80.1302799,59.4890585 L80.1302799,59.4890585 L115.908397,59.4890585 C115.978965,58.6422392 116.049534,57.6719254 116.120102,56.578117 C116.19067,55.4843087 116.225954,54.4787108 116.225954,53.5613232 C116.225954,44.1757422 113.932485,37.0659881 109.345547,32.2320611 C104.758609,27.398134 98.5133164,24.9811705 90.6096692,24.9811705 C87.2223919,24.9811705 83.9233249,25.616285 80.7124682,26.886514 C77.5016115,28.156743 74.6612383,30.0268024 72.1913486,32.4966921 C69.7214589,34.9665818 67.727905,38.053944 66.210687,41.7587786 C64.693469,45.4636132 63.9348601,49.7859203 63.9348601,54.7256997 C63.9348601,58.8186599 64.5170483,62.6293469 65.6814249,66.1577608 C66.8458015,69.6861747 68.6452926,72.7382528 71.0798982,75.3139949 C73.5145038,77.8897371 76.5842239,79.9185751 80.2890585,81.4005089 C83.9938931,82.8824427 88.3514843,83.6234097 93.3618321,83.6234097 Z" id="Path" fill="#342E52"></path>
                    <path d="M100.983206,48.692112 L80.1302799,48.692112 C80.3419847,47.3513147 80.6771841,46.0281595 81.1358779,44.7226463 C81.5945717,43.4171332 82.2473282,42.2703986 83.0941476,41.2824427 C83.9409669,40.2944869 84.9994911,39.5005937 86.2697201,38.9007634 C87.5399491,38.300933 89.0571671,38.0010178 90.821374,38.0010178 C92.6561493,38.0010178 94.1910093,38.3185751 95.4259542,38.9536896 C96.6608991,39.5888041 97.6841391,40.4003393 98.4956743,41.3882952 C99.3072095,42.3762511 99.9070399,43.5053435 100.295165,44.7755725 C100.683291,46.0458015 100.912638,47.3513147 100.983206,48.692112 L100.983206,48.692112 Z" id="Path" fill="#FFFFFF"></path>
                    <path d="M156.661578,82.1414758 C160.26056,75.084648 163.912468,66.8281595 167.617303,57.3720102 C171.322137,47.9158609 174.832909,37.6128923 178.149618,26.4631043 L178.149618,26.4631043 L161.848346,26.4631043 C161.142663,29.2152672 160.313486,32.1967769 159.360814,35.4076336 C158.408142,38.6184902 157.420187,41.864631 156.396947,45.146056 C155.373707,48.4274809 154.332824,51.6206955 153.2743,54.7256997 C152.215776,57.830704 151.22782,60.6534351 150.310433,63.1938931 C149.322477,60.6534351 148.316879,57.830704 147.293639,54.7256997 C146.270399,51.6206955 145.247159,48.4274809 144.223919,45.146056 C143.200679,41.864631 142.212723,38.6184902 141.260051,35.4076336 C140.307379,32.1967769 139.478202,29.2152672 138.772519,26.4631043 L138.772519,26.4631043 L122.047837,26.4631043 C125.364546,37.6128923 128.875318,47.9158609 132.580153,57.3720102 C136.284987,66.8281595 139.936896,75.084648 143.535878,82.1414758 L143.535878,82.1414758 L156.661578,82.1414758 Z" id="Path" fill="#342E52"></path>
                    <path d="M202.389822,82.1414758 L202.389822,39.5888041 L221.866667,39.5888041 L221.866667,26.4631043 L202.389822,26.4631043 L202.389822,23.7109415 C202.389822,22.2290076 202.548601,20.8529262 202.866158,19.5826972 C203.183715,18.3124682 203.712977,17.2186599 204.453944,16.3012723 C205.194911,15.3838846 206.218151,14.6605598 207.523664,14.1312977 C208.829177,13.6020356 210.434606,13.3374046 212.339949,13.3374046 C213.751315,13.3374046 215.286175,13.4961832 216.944529,13.8137405 C218.602884,14.1312977 220.137744,14.6076336 221.549109,15.2427481 L221.549109,15.2427481 L224.61883,2.64631043 C223.278032,2.08176421 221.372689,1.49957591 218.902799,0.899745547 C216.432909,0.299915182 213.716031,0 210.752163,0 C202.777947,0 196.762002,2.11704835 192.704326,6.35114504 C188.64665,10.5852417 186.617812,16.3012723 186.617812,23.4992366 L186.617812,23.4992366 L186.617812,82.1414758 L202.389822,82.1414758 Z" id="Path" fill="#342E52"></path>
                    <path d="M250.658524,83.3058524 C256.374555,83.3058524 261.243766,82.9706531 265.266158,82.3002545 C269.28855,81.6298558 272.428838,81.0476675 274.687023,80.5536896 L274.687023,80.5536896 L274.687023,47.7394402 C274.687023,44.2815946 274.298897,41.1413062 273.522646,38.3185751 C272.746395,35.4958439 271.42324,33.0965225 269.553181,31.1206107 C267.683121,29.1446989 265.195589,27.6274809 262.090585,26.5689567 C258.985581,25.5104326 255.104326,24.9811705 250.446819,24.9811705 C248.612044,24.9811705 246.794911,25.0693808 244.99542,25.2458015 C243.195929,25.4222222 241.484648,25.6339271 239.861578,25.880916 C238.238507,26.127905 236.738931,26.4101781 235.36285,26.7277354 C233.986768,27.0452926 232.840034,27.3452078 231.922646,27.6274809 L231.922646,27.6274809 L233.933842,40.329771 C235.839186,39.6240882 238.097371,39.0771841 240.708397,38.6890585 C243.319423,38.300933 245.965734,38.1068702 248.647328,38.1068702 C252.66972,38.1068702 255.492451,38.9184054 257.115522,40.5414758 C258.738592,42.1645462 259.550127,44.3168787 259.550127,46.9984733 L259.550127,46.9984733 L259.550127,48.4804071 C258.562171,48.198134 257.2743,47.9687871 255.686514,47.7923664 C254.098728,47.6159457 252.281595,47.5277354 250.235115,47.5277354 C247.200679,47.5277354 244.272095,47.8276506 241.449364,48.4274809 C238.626633,49.0273113 236.121459,49.9976251 233.933842,51.3384224 C231.746226,52.6792197 229.999661,54.4787108 228.694148,56.7368957 C227.388634,58.9950806 226.735878,61.7472434 226.735878,64.9933842 C226.735878,68.3806616 227.300424,71.2386768 228.429517,73.56743 C229.558609,75.8961832 231.181679,77.7838846 233.298728,79.2305344 C235.415776,80.6771841 237.938592,81.7180662 240.867176,82.3531807 C243.795759,82.9882952 247.059542,83.3058524 250.658524,83.3058524 Z" id="Path" fill="#342E52"></path>
                    <path d="M251.717048,71.1328244 C248.823749,71.1328244 246.547922,70.6564885 244.889567,69.7038168 C243.231213,68.751145 242.402036,67.0398643 242.402036,64.5699746 C242.402036,63.2997455 242.684309,62.2412214 243.248855,61.394402 C243.813401,60.5475827 244.589652,59.8771841 245.577608,59.3832061 C246.565564,58.8892282 247.712299,58.5540288 249.017812,58.3776081 C250.323325,58.2011874 251.717048,58.1129771 253.198982,58.1129771 C254.257506,58.1129771 255.421883,58.1835454 256.692112,58.3246819 C257.962341,58.4658185 258.915013,58.606955 259.550127,58.7480916 L259.550127,58.7480916 L259.550127,70.7094148 C258.703308,70.8505513 257.574215,70.9564037 256.16285,71.026972 C254.751484,71.0975403 253.26955,71.1328244 251.717048,71.1328244 Z" id="Path" fill="#FFFFFF"></path>
                    <path d="M296.810178,19.6885496 C299.350636,19.6885496 301.555895,18.8593723 303.425954,17.2010178 C305.296014,15.5426633 306.231043,13.2668363 306.231043,10.3735369 C306.231043,7.48023749 305.296014,5.20441052 303.425954,3.54605598 C301.555895,1.88770144 299.350636,1.05852417 296.810178,1.05852417 C294.26972,1.05852417 292.064461,1.88770144 290.194402,3.54605598 C288.324343,5.20441052 287.389313,7.48023749 287.389313,10.3735369 C287.389313,13.2668363 288.324343,15.5426633 290.194402,17.2010178 C292.064461,18.8593723 294.26972,19.6885496 296.810178,19.6885496 Z" id="Path" fill="#8989C0"></path>
                    <polygon id="Path" fill="#342E52" points="304.749109 82.1414758 304.749109 26.4631043 288.977099 26.4631043 288.977099 82.1414758"></polygon>
                    <path d="M335.340458,82.1414758 L335.340458,39.5888041 C336.046141,39.3770992 337.087023,39.1830365 338.463104,39.0066158 C339.839186,38.8301951 341.021204,38.7419847 342.00916,38.7419847 C344.196777,38.7419847 346.243257,38.9360475 348.148601,39.324173 C350.053944,39.7122986 351.712299,40.082782 353.123664,40.4356234 L353.123664,40.4356234 L355.769975,27.4157761 C354.923155,27.0629347 353.899915,26.7630195 352.700254,26.5160305 C351.500594,26.2690416 350.300933,26.0573367 349.101272,25.880916 C347.901612,25.7044953 346.701951,25.5633588 345.50229,25.4575064 C344.302629,25.3516539 343.279389,25.2987277 342.43257,25.2987277 C337.704495,25.2987277 333.417472,25.7397795 329.571501,26.621883 C325.72553,27.5039864 322.391179,28.4390161 319.568448,29.426972 L319.568448,29.426972 L319.568448,82.1414758 L335.340458,82.1414758 Z" id="Path" fill="#342E52"></path>
                </g>
            </g>
        </g>
    </g>
</svg>